HIERARCHY
ROOT Hips
{
	OFFSET 0.00000 0.00000 0.00000
	CHANNELS 6 Xposition Yposition Zposition Zrotation Yrotation Xrotation 
	JOINT LHipJoint
	{
		OFFSET 0 0 0
		CHANNELS 3 Zrotation Yrotation Xrotation
		JOINT LeftUpLeg
		{
			OFFSET 1.30186 -1.90722 0.65024
			CHANNELS 3 Zrotation Yrotation Xrotation
			JOINT LeftLeg
			{
				OFFSET 2.56413 -7.04489 0.00000
				CHANNELS 3 Zrotation Yrotation Xrotation
				JOINT LeftFoot
				{
					OFFSET 2.79321 -7.67428 0.00000
					CHANNELS 3 Zrotation Yrotation Xrotation
					JOINT LeftToeBase
					{
						OFFSET 0.15723 -0.43198 2.08537
						CHANNELS 3 Zrotation Yrotation Xrotation
						End Site
						{
							OFFSET 0.00000 -0.00000 1.07411
						}
					}
				}
			}
		}
	}
	JOINT RHipJoint
	{
		OFFSET 0 0 0
		CHANNELS 3 Zrotation Yrotation Xrotation
		JOINT RightUpLeg
		{
			OFFSET -1.28627 -1.90723 0.65024
			CHANNELS 3 Zrotation Yrotation Xrotation
			JOINT RightLeg
			{
				OFFSET -2.56567 -7.04913 0.00000
				CHANNELS 3 Zrotation Yrotation Xrotation
				JOINT RightFoot
				{
					OFFSET -2.75597 -7.57198 0.00000
					CHANNELS 3 Zrotation Yrotation Xrotation
					JOINT RightToeBase
					{
						OFFSET -0.17500 -0.48081 2.22901
						CHANNELS 3 Zrotation Yrotation Xrotation
						End Site
						{
							OFFSET -0.00000 -0.00000 1.14762
						}
					}
				}
			}
		}
	}
	JOINT LowerBack
	{
		OFFSET 0 0 0
		CHANNELS 3 Zrotation Yrotation Xrotation
		JOINT Spine
		{
			OFFSET -0.04522 2.07467 -0.16566
			CHANNELS 3 Zrotation Yrotation Xrotation
			JOINT Spine1
			{
				OFFSET -0.01178 2.08825 -0.05393
				CHANNELS 3 Zrotation Yrotation Xrotation
				JOINT Neck
				{
					OFFSET 0 0 0
					CHANNELS 3 Zrotation Yrotation Xrotation
					JOINT Neck1
					{
						OFFSET -0.05182 1.80489 0.16014
						CHANNELS 3 Zrotation Yrotation Xrotation
						JOINT Head
						{
							OFFSET 0.14739 1.78840 -0.33342
							CHANNELS 3 Zrotation Yrotation Xrotation
							End Site
							{
								OFFSET 0.04364 1.83899 -0.13460
							}
						}
					}
				}
				JOINT LeftShoulder
				{
					OFFSET 0 0 0
					CHANNELS 3 Zrotation Yrotation Xrotation
					JOINT LeftArm
					{
						OFFSET 3.01264 1.29090 -0.06579
						CHANNELS 3 Zrotation Yrotation Xrotation
						JOINT LeftForeArm
						{
							OFFSET 5.55680 -0.00000 0.00000
							CHANNELS 3 Zrotation Yrotation Xrotation
							JOINT LeftHand
							{
								OFFSET 3.63979 -0.00000 -0.00000
								CHANNELS 3 Zrotation Yrotation Xrotation
								JOINT LeftFingerBase
								{
									OFFSET 0 0 0
									CHANNELS 3 Zrotation Yrotation Xrotation
									JOINT LeftHandIndex1
									{
										OFFSET 0.56942 -0.00000 -0.00000
										CHANNELS 3 Zrotation Yrotation Xrotation
										End Site
										{
											OFFSET 0.45908 -0.00000 -0.00000
										}
									}
								}
								JOINT LThumb
								{
									OFFSET 0 0 0
									CHANNELS 3 Zrotation Yrotation Xrotation
									End Site
									{
										OFFSET 0.46609 -0.00000 0.46609
									}
								}
							}
						}
					}
				}
				JOINT RightShoulder
				{
					OFFSET 0 0 0
					CHANNELS 3 Zrotation Yrotation Xrotation
					JOINT RightArm
					{
						OFFSET -3.15796 1.37283 -0.36748
						CHANNELS 3 Zrotation Yrotation Xrotation
						JOINT RightForeArm
						{
							OFFSET -5.34339 -0.00000 0.00000
							CHANNELS 3 Zrotation Yrotation Xrotation
							JOINT RightHand
							{
								OFFSET -3.65101 -0.00000 -0.00000
								CHANNELS 3 Zrotation Yrotation Xrotation
								JOINT RightFingerBase
								{
									OFFSET 0 0 0
									CHANNELS 3 Zrotation Yrotation Xrotation
									JOINT RightHandIndex1
									{
										OFFSET -0.69425 -0.00000 -0.00000
										CHANNELS 3 Zrotation Yrotation Xrotation
										End Site
										{
											OFFSET -0.55972 -0.00000 -0.00000
										}
									}
								}
								JOINT RThumb
								{
									OFFSET 0 0 0
									CHANNELS 3 Zrotation Yrotation Xrotation
									End Site
									{
										OFFSET -0.56827 -0.00000 0.56827
									}
								}
							}
						}
					}
				}
			}
		}
	}
}
MOTION
Frames: 7
Frame Time: .0083333
11.2679 18.1021 -17.6815 0 0 0 0 0 0 -21 0 0 0 0 0 0 0 0 0 0 0 0 0 0 21 0 0 0 0 0 0 0 0 0 0 0 0 0 0 0 0 0 0 0 0 0 0 -16 0 0 21 0 0 11 0 0 0 -8 0 0 0 0 0 0 0 0 0 0 0 0 0 0 0 0 0 0 0 0 8 0 0 0 0 0 0 0 0 0 0 0 0 0 0 0 0 0
11.2679 18.1021 -17.6815 -1.5618 56.2211 0.6038 0.0000 0.0000 0.0000 -17.4824 -7.6473 1.7667 1.0275 6.4479 18.0896 1.5864 7.7457 -27.6873 0.0216 -0.9485 -2.6070 0.0000 0.0000 0.0000 14.4892 18.0176 -4.9702 -1.5075 -7.7546 21.9710 -0.4275 -2.5569 -13.5521 -0.2765 -3.3823 9.3448 -4.7829 -0.9981 -2.6313 -0.0610 -1.1625 0.6351 2.5653 -0.6417 2.2252 -15.0627 -16.8739 0.7587 14.7392 -25.5739 21.5380 4.5044 -12.0783 10.7238 -0.0000 -0.0000 0.0000 -90.8069 5.7211 13.8799 11.4119 -18.9169 -1.9073 -0.0000 -0.0000 7.9155 27.4470 18.9357 9.5671 -7.1250 0.0000 -0.0000 -0.7802 51.1140 -0.1175 -0.0000 -0.0000 0.0000 91.9357 -5.9242 17.1853 -16.7831 26.5709 -3.9898 0.0000 0.0000 2.8315 -15.6034 29.4228 -7.8117 7.1250 -0.0000 -0.0000 8.8478 0.0550 8.9638
11.2720 18.1061 -17.6855 -1.6041 56.2793 0.5150 0.0000 0.0000 0.0000 -17.4828 -7.6974 1.9126 1.0140 6.4068 17.9695 1.6128 7.4775 -27.6980 0.0063 -0.5129 -1.4094 0.0000 0.0000 0.0000 14.5184 18.1842 -4.8268 -1.5139 -7.7703 22.0185 -0.4451 -2.5540 -13.7957 -0.3445 -3.7713 10.4341 -4.7707 -1.0490 -2.5559 -0.0285 -1.2355 0.6492 2.5896 -0.6780 2.2037 -15.1005 -16.8224 0.6280 14.6551 -25.4847 21.6714 4.4849 -12.0338 10.7741 -0.0000 0.0000 0.0000 -90.8894 5.6871 13.9205 11.5017 -19.0531 -1.9365 -0.0000 -0.0000 7.4881 28.0716 18.6590 9.6829 -7.1250 0.0000 -0.0000 -0.0952 50.9218 -0.0139 -0.0000 0.0000 0.0000 91.7381 -5.7324 17.2102 -16.5746 26.2935 -3.8970 0.0000 0.0000 2.9529 -15.6502 29.2331 -7.7906 7.1250 -0.0000 -0.0000 8.8033 -0.1272 8.8894
11.2745 18.1089 -17.6846 -1.6721 56.2920 0.4622 0.0000 0.0000 0.0000 -17.4310 -7.6049 1.9025 1.0089 6.3911 17.9235 1.5906 7.5166 -27.5689 0.0052 -0.4648 -1.2770 0.0000 0.0000 0.0000 14.5859 18.5547 -4.6657 -1.5182 -7.7808 22.0503 -0.4611 -2.7053 -14.1013 -0.3815 -3.9665 10.9824 -4.7233 -0.9448 -2.5708 -0.0962 -1.0933 0.7340 2.4989 -0.6091 2.2857 -14.8064 -16.9949 0.3414 14.5293 -25.7051 21.7701 4.3359 -12.1011 10.8394 0.0000 -0.0000 0.0000 -90.7141 5.3321 13.7411 11.4789 -19.0186 -1.9291 -0.0000 -0.0000 8.2687 27.2413 18.3297 9.1969 -7.1250 0.0000 -0.0000 -0.8688 50.4142 -0.1159 0.0000 -0.0000 0.0000 91.8289 -5.4328 16.9018 -16.4476 26.1238 -3.8409 0.0000 0.0000 2.6490 -15.5424 29.1903 -7.7246 7.1250 -0.0000 -0.0000 8.8623 -0.1874 8.9410
11.2756 18.1022 -17.6846 -1.7318 56.2995 0.4227 0.0000 0.0000 0.0000 -17.3926 -7.5388 1.9117 1.0008 6.3662 17.8508 1.5646 7.6067 -27.4448 0.0020 -0.2858 -0.7853 0.0000 0.0000 0.0000 14.6447 18.5316 -4.7131 -1.5237 -7.7942 22.0906 -0.4447 -2.8821 -13.9830 -0.2832 -3.4226 9.4577 -4.6758 -0.8594 -2.6062 -0.1271 -0.9768 0.7907 2.4450 -0.5526 2.3534 -14.6909 -17.0964 0.2244 14.5148 -25.8467 21.7958 4.2777 -12.1496 10.8759 -0.0000 -0.0000 0.0000 -90.4252 4.9832 13.2339 11.4416 -18.9620 -1.9170 -0.0000 -0.0000 10.4682 24.1033 18.8431 8.2222 -7.1250 0.0000 -0.0000 -4.1051 50.4340 -0.5506 -0.0000 -0.0000 0.0000 91.9849 -5.2140 16.0800 -16.4191 26.0856 -3.8284 0.0000 0.0000 2.9864 -14.5751 29.0441 -7.1946 7.1250 -0.0000 -0.0000 9.4135 -0.4853 9.4624
11.2782 18.0958 -17.6856 -1.5288 56.3411 0.5661 0.0000 0.0000 0.0000 -17.5366 -7.5531 1.9846 0.9948 6.3476 17.7962 1.5828 7.5168 -27.5147 0.0000 -0.0368 -0.1012 0.0000 0.0000 0.0000 14.5348 18.3720 -4.7523 -1.5281 -7.8049 22.1231 -0.4288 -3.0028 -13.8360 -0.2079 -2.9359 8.1004 -4.8501 -0.9125 -2.6376 -0.0994 -1.0399 0.8001 2.5677 -0.5877 2.3898 -14.8894 -17.0124 0.2538 14.6175 -25.7561 21.8799 4.3561 -12.1123 10.9324 0.0000 -0.0000 0.0000 -90.3278 4.8944 12.8737 11.4750 -19.0127 -1.9278 -0.0000 -0.0000 11.8322 21.8432 19.2272 7.5198 -7.1250 0.0000 -0.0000 -6.4361 50.4633 -0.8697 0.0000 -0.0000 0.0000 91.9078 -5.0520 15.5726 -16.2964 25.9209 -3.7746 0.0000 0.0000 3.6939 -13.8457 28.7943 -6.7703 7.1250 -0.0000 -0.0000 9.8195 -0.8442 9.8197
11.2833 18.0964 -17.6875 -1.2339 56.4182 0.8327 0.0000 0.0000 0.0000 -17.7426 -7.6208 2.0076 0.9920 6.3389 17.7710 1.5708 7.6310 -27.5040 0.0018 -0.2723 -0.7483 0.0000 0.0000 0.0000 14.3094 18.2736 -4.7970 -1.5301 -7.8098 22.1380 -0.4343 -2.9566 -13.8844 -0.2324 -3.1031 8.5658 -5.0539 -1.0002 -2.6959 -0.0825 -1.1465 0.7946 2.6932 -0.6448 2.4305 -15.0943 -16.9767 0.0918 14.5595 -25.7030 22.1256 4.3540 -12.0876 11.0671 0.0000 -0.0000 0.0000 -90.6087 4.9641 13.0759 11.5772 -19.1676 -1.9613 -0.0000 -0.0000 10.8759 22.7818 18.7335 7.6821 -7.1250 0.0000 -0.0000 -5.3799 50.0984 -0.6778 0.0000 -0.0000 0.0000 91.6081 -4.8530 15.6423 -16.0334 25.5660 -3.6604 0.0000 0.0000 4.0689 -13.6646 28.7746 -6.6749 7.1250 -0.0000 -0.0000 9.9238 -0.8906 9.9191
